<svg
  width="661.213077px"
  height="143px"
  viewBox="0 0 661.213077 143"
  version="1.1"
  xmlns="http://www.w3.org/2000/svg"
  xmlns:xlink="http://www.w3.org/1999/xlink"
>
  <g id="Page-1" stroke="none" stroke-width="1" fill="none" fill-rule="evenodd">
    <g id="print_transparent" fill="#000000" fill-rule="nonzero">
      <g id="Group">
        <g transform="translate(0.0461, 0)" id="Shape">
          <path
            d="M47.5132356,108.03972 L23.8705355,88.3971439 L0.227835418,68.7545679 C-0.0536252973,68.5281405 -0.0536252973,68.1318926 0.115251132,67.8488583 C0.340419704,67.5658241 0.678172562,67.5658241 0.959633278,67.7356447 L26.2348055,85.2271605 L51.5099777,102.718676 C53.0298656,103.7376 53.4239106,105.832053 52.3543599,107.360438 C51.228517,108.94543 48.9768313,109.285071 47.5132356,108.03972 L47.5132356,108.03972 Z M0.284127561,60.1503271 C0.284127561,60.1503271 1.01592542,60.7730024 1.01592542,60.7730024 L20.8870519,77.3022019 L23.0824455,79.1702278 L40.7018863,93.8314013 L40.7018863,93.8314013 C40.7581784,93.8314013 45.9370556,98.1335217 45.9370556,98.0769148 L45.9370556,98.0769148 C47.3443592,99.2656586 49.4834606,98.9260175 50.5530113,97.3410258 C51.5099777,95.8692478 51.1159327,93.8880081 49.7086292,92.8690849 L27.9235698,77.8116635 L25.3341312,76.0002444 L2.08547614,59.8672929 C2.08547614,59.8672929 1.01592542,59.1314039 1.01592542,59.1314039 C0.734464705,58.9615833 0.396711847,59.0181902 0.171543275,59.2446175 C0.00266684571,59.5276518 0.0589589888,59.9238997 0.284127561,60.1503271 Z M1.24109399,51.4328726 C1.24109399,51.4328726 1.97289185,52.0555479 1.97289185,52.0555479 L21.1122205,67.962072 L23.2513219,69.7168843 L40.2515491,83.8119893 L40.2515491,83.8119893 C40.3078413,83.8685961 45.2615499,87.8876823 45.317842,87.8310755 L45.317842,87.8310755 C46.6688534,88.9066056 48.6953706,88.5669645 49.652337,87.0951864 C50.5530113,85.6800153 50.1589663,83.7553825 48.8079549,82.8496729 L27.8672777,68.35832 L25.3904234,66.6601146 L2.98615043,51.1498384 C2.98615043,51.1498384 1.97289185,50.4705562 1.97289185,50.4705562 C1.74772328,50.3007357 1.35367828,50.3573425 1.18480185,50.5837699 C0.959633278,50.8101973 0.959633278,51.2064452 1.24109399,51.4328726 Z M2.98615043,42.772025 C2.98615043,42.772025 3.66165614,43.3380934 3.66165614,43.3380934 L22.1254791,58.6785491 L24.2082884,60.3767545 L40.5330098,73.9623979 L40.5330098,73.9623979 C40.6455941,74.0190047 45.3741342,77.8116635 45.3741342,77.7550566 L45.3741342,77.7550566 C46.6688534,78.7739799 48.5827863,78.377732 49.4834606,76.9625608 C50.3278427,75.6606033 49.9337977,73.7925773 48.6390784,72.8868678 L28.5427834,58.9615833 L26.1785134,57.3199847 L4.67491472,42.4889907 C4.67491472,42.4889907 3.71794829,41.8097086 3.66165614,41.8097086 C3.43648757,41.639888 3.09873471,41.6964949 2.92985828,41.9229223 C2.76098186,42.2059565 2.76098186,42.5455976 2.98615043,42.772025 Z M5.68817329,34.3942116 C5.68817329,34.3942116 6.30738687,34.96028 6.36367901,34.96028 L24.0957041,49.6780603 L26.0659291,51.3196589 L41.771437,64.3958407 L41.771437,64.3958407 C41.8840213,64.5090544 46.3873927,68.0752857 46.4436849,67.962072 L46.4436849,67.962072 C47.682112,68.8677816 49.4834606,68.4715337 50.2715506,67.1695762 C51.0596406,65.9242255 50.6093035,64.1128064 49.4271685,63.2637037 L30.1752555,49.9044877 L27.9235698,48.319496 L7.32064544,34.1111773 C7.32064544,34.1111773 6.41997115,33.488502 6.36367901,33.488502 C6.13851044,33.3186815 5.80075758,33.3752883 5.63188115,33.6017157 C5.46300472,33.8281431 5.46300472,34.1677842 5.68817329,34.3942116 Z M9.29087045,26.4692529 C9.29087045,26.4692529 9.91008402,26.9787146 9.91008402,27.0353214 L26.9103112,41.1870332 L28.8242441,42.772025 L43.9105384,55.3387451 L43.9105384,55.3387451 C44.0794149,55.4519588 48.3576177,58.7917628 48.4139099,58.6785491 L48.4139099,58.6785491 C49.5960449,59.5276518 51.228517,59.1314039 52.016607,57.8294464 C52.7484049,56.6407026 52.2980677,54.9424971 51.1159327,54.1500013 L32.708402,41.3568538 L30.5130084,39.8284689 L10.8107583,26.1862187 C10.8107583,26.1862187 9.91008402,25.5635434 9.91008402,25.6201502 C9.68491545,25.5069365 9.40345474,25.5069365 9.23457831,25.7333639 C9.06570188,25.9597913 9.12199402,26.2428255 9.29087045,26.4692529 Z M13.9068262,19.2235765 C13.9068262,19.2235765 14.4697476,19.7330381 14.4697476,19.7330381 L30.738177,33.2620746 L32.5395255,34.7904595 L47.0066063,46.7911111 L47.0066063,46.7911111 C47.1754827,46.9609317 51.228517,50.0743083 51.3411013,49.9044877 L51.3411013,49.9044877 C52.4669442,50.6969836 53.986832,50.2441288 54.7186299,49.055385 C55.3941356,47.9232481 54.9437985,46.2816495 53.8179556,45.5457605 L36.254807,33.4318952 L34.1719977,32.016724 L15.3704219,18.9971491 C15.3704219,18.9971491 14.5260398,18.4310806 14.5260398,18.4310806 C14.3008712,18.3178669 14.0194105,18.3744738 13.850534,18.5442943 C13.6816576,18.7141148 13.6816576,19.0537559 13.9068262,19.2235765 Z M19.4797483,12.8836096 C19.4797483,12.9402164 19.9863776,13.3930712 20.0426698,13.3930712 L35.6355934,26.3560392 L37.3806498,27.8278173 L51.1722249,39.3190073 L51.1722249,39.3190073 C51.3973935,39.4888278 55.2252592,42.375777 55.3378435,42.2059565 L55.3378435,42.2059565 C56.4073942,42.8852387 57.8146978,42.4323839 58.4339113,41.3002469 C59.0531249,40.2247168 58.5464956,38.696332 57.5332371,38.0170498 L40.8144706,26.4126461 L38.8442456,25.0540817 L20.8870519,12.6005753 C20.8307598,12.6005753 20.0989619,12.0911137 20.0426698,12.0911137 C19.8175012,11.9779 19.5923326,12.0345068 19.4234562,12.2043274 C19.2545798,12.4307548 19.3108719,12.713789 19.4797483,12.8836096 Z M26.1222212,7.6757796 C26.1222212,7.73238645 26.6288505,8.12863438 26.6288505,8.18524123 L41.4899763,20.5821408 L43.1787406,21.9407051 L56.351102,32.9224335 L56.351102,32.9224335 C56.5762706,33.0922541 60.2352599,35.7527759 60.2915521,35.5829554 L60.2915521,35.5829554 C61.3048106,36.2056307 62.5432378,35.7527759 63.1624514,34.6772458 C63.7253728,33.6583225 63.2187435,32.1865445 62.2617771,31.5638692 L46.3311006,20.5821408 L44.4734599,19.2801833 L27.4732327,7.39274537 C27.4169405,7.39274537 26.7414348,6.88328374 26.6851427,6.88328374 C26.5162662,6.77007004 26.2348055,6.82667689 26.0659291,6.99649743 C25.8970527,7.22292482 25.9533448,7.50595906 26.1222212,7.6757796 Z M33.8342448,3.76990713 C33.8342448,3.82651398 34.284582,4.22276191 34.3408741,4.22276191 L48.470202,15.9969862 L50.046382,17.2989437 L62.5995299,27.7712104 L62.5995299,27.7712104 C62.8809906,27.9976378 66.2585192,30.4317322 66.3711035,30.2053049 L66.3711035,30.2053049 C67.3280699,30.7147665 68.4539128,30.2619117 69.0168342,29.2429884 C69.5234635,28.3372789 68.9605421,26.9221077 68.1161599,26.2994324 L53.0298656,15.8837725 L51.228517,14.6384218 L35.1289641,3.4868729 C35.072672,3.4868729 34.3971663,3.03401812 34.3971663,3.03401812 C34.2282898,2.92080442 34.0031213,2.97741127 33.8342448,3.14723181 C33.6653684,3.31705236 33.6653684,3.60008659 33.8342448,3.76990713 Z M42.6721113,1.39241955 C42.6721113,1.44902639 43.1224484,1.78866748 43.1224484,1.84527432 L56.5762706,13.0534301 L58.0961585,14.2987807 L70.0300928,24.204979 L70.0300928,24.204979 C70.3678457,24.4314064 73.5202057,26.6390735 73.63279,26.4126461 L73.63279,26.4126461 C74.5334643,26.8655009 75.5467228,26.3560392 75.99706,25.3937228 C76.4473971,24.5446201 75.8844757,23.1860558 75.0963857,22.6765942 L60.7981813,12.8270027 L59.1094171,11.6382589 L43.9105384,1.10938531 C43.8542463,1.10938531 43.2350327,0.65653053 43.1787406,0.713137377 C43.0098641,0.599923682 42.7846956,0.65653053 42.6721113,0.826351072 C42.5032349,0.996171614 42.5032349,1.222599 42.6721113,1.39241955 Z M52.5232363,0.713137377 C52.5232363,0.769744224 52.9172813,1.10938531 52.9735735,1.16599216 L65.6955978,11.6948658 L67.1029014,12.8836096 L78.36133,22.2803462 L78.36133,22.2803462 C78.6990828,22.5633805 81.6262743,24.4880133 81.7951507,24.2615859 L81.7951507,24.2615859 C82.6395329,24.6578338 83.483915,24.1483722 83.9342521,23.2426626 C84.272005,22.4501668 83.7653757,21.2048161 83.0335779,20.6953545 L69.6360478,11.4118315 L68.0598678,10.3363014 L53.7053713,0.43010314 C53.6490792,0.373496293 53.0861578,0.0338552088 53.0298656,0.0338552088 C52.8609892,-0.0227516386 52.6358206,-0.0227516386 52.5232363,0.147068904 C52.410652,0.316889446 52.410652,0.543316835 52.5232363,0.713137377 Z M62.4869456,1.50563324 C62.4869456,1.56224009 62.8246985,1.90188117 62.8809906,1.90188117 L74.8712171,11.9212932 L76.2222285,13.0534301 L86.8614436,21.8840983 L86.8614436,21.8840983 C87.2554886,22.1671325 89.9575115,23.9219448 90.1263879,23.5823037 L90.1263879,23.5823037 C90.8581857,23.8653379 91.8151522,23.4124832 91.9840286,22.5067736 C92.4343657,21.8840983 91.7025679,20.5821408 91.0833543,20.129286 L78.5302064,11.4684384 L77.0666107,10.4495151 L63.6127885,1.16599216 C63.5564964,1.10938531 63.0498671,0.769744224 62.9935749,0.826351072 C62.8246985,0.769744224 62.6558221,0.826351072 62.5432378,0.939564767 C62.3743614,1.10938531 62.3743614,1.3358127 62.4869456,1.50563324 Z M72.1129021,3.65669344 C72.1129021,3.71330029 72.450655,3.99633452 72.5069471,4.05294137 L83.7653757,13.449678 L85.0038029,14.5252081 L95.0238043,22.8464147 L95.0238043,22.8464147 C95.4178493,23.1860558 97.8947036,24.6578338 98.0635801,24.3181927 L98.0635801,24.3181927 C98.7390858,24.5446201 99.5834679,24.0917653 99.6960522,23.2426626 C100.090097,22.6765942 99.3582993,21.4878504 98.7953779,21.0916024 L87.0866122,12.9968233 L85.6793086,12.0345068 L73.1261607,3.3736592 C73.0698685,3.31705236 72.5632392,3.03401812 72.5069471,3.03401812 C72.3380707,2.97741127 72.1691942,3.03401812 72.05661,3.14723181 C72.05661,3.31705236 72.05661,3.4868729 72.1129021,3.65669344 Z M81.4011057,7.05310428 C81.4011057,7.10971113 81.6825664,7.39274537 81.7388586,7.44935221 L92.3217815,16.2800204 L93.5039165,17.2423368 L102.848412,25.0540817 L102.848412,25.0540817 C103.298749,25.3937228 105.550435,26.6956803 105.719312,26.2994324 L105.719312,26.2994324 C106.338525,26.4126461 107.070323,25.9597913 107.126615,25.1672954 C107.464368,24.6578338 106.73257,23.5256969 106.225941,23.1860558 L95.3615572,15.6573451 L94.0668379,14.7516355 L82.4143643,6.7134632 C82.3580721,6.65685635 81.907735,6.43042896 81.8514429,6.43042896 C81.7388586,6.37382211 81.5699821,6.43042896 81.4573979,6.54364266 C81.2885214,6.7134632 81.2885214,6.93989059 81.4011057,7.05310428 Z M90.1263879,11.6382589 C90.1263879,11.6948658 90.4078486,11.9212932 90.4078486,11.9779 L100.258974,20.1858929 L101.384816,21.0916024 L110.110099,28.3938857 L110.110099,28.3938857 C110.560436,28.7335268 112.586953,29.8090569 112.812122,29.412809 L112.812122,29.412809 C113.375043,29.4694158 113.994257,29.0165611 113.937964,28.280672 C114.219425,27.8278173 113.431335,26.808894 113.03729,26.4692529 L103.017289,19.5066107 L101.835154,18.7141148 L91.0833543,11.2986178 C91.0270622,11.242011 90.6330172,11.0155836 90.576725,11.0721904 C90.4641407,11.0155836 90.2952643,11.0721904 90.18268,11.1854041 C90.0138036,11.3552247 90.0138036,11.5250452 90.1263879,11.6382589 Z M98.1761643,17.2989437 C98.1761643,17.3555505 98.4013329,17.5819779 98.4576251,17.6385847 L107.576952,25.2805091 L108.590211,26.1296118 L116.696279,32.9224335 L116.696279,32.9224335 C117.202909,33.3186815 119.004257,34.1111773 119.229426,33.7149294 L119.229426,33.7149294 C119.736055,33.7149294 120.242684,33.2054678 120.1301,32.5261856 C120.355269,32.1865445 119.567179,31.1676213 119.229426,30.9411939 L109.997514,24.601227 L108.927964,23.8653379 L99.0768386,17.0725163 C99.0205465,17.0159094 98.6827936,16.8460889 98.5702093,16.8460889 C98.4576251,16.789482 98.3450408,16.8460889 98.2324565,16.9593026 C98.1198722,16.9593026 98.0635801,17.1291231 98.1761643,17.2989437 Z M105.437851,23.8653379 C105.437851,23.9219448 105.606727,24.1483722 105.663019,24.204979 L114.106841,31.2242281 L115.063807,32.016724 L122.550662,38.2434772 L122.550662,38.2434772 C123.057292,38.6397251 124.689764,39.2624004 124.914932,38.8095456 L124.914932,38.8095456 C125.365269,38.696332 125.759314,38.1868703 125.534146,37.6208019 C125.759314,37.3377676 124.914932,36.4320581 124.577179,36.2056307 L116.18965,30.4317322 L115.176392,29.7524501 L106.225941,23.5823037 C106.169649,23.5256969 105.888188,23.3558763 105.775604,23.4124832 C105.663019,23.4124832 105.550435,23.4124832 105.494143,23.5256969 C105.381559,23.6389106 105.381559,23.7521243 105.437851,23.8653379 Z M111.742571,31.3940486 C111.742571,31.4506555 111.911447,31.620476 111.967739,31.6770829 L119.679763,38.1302635 L120.524145,38.8661525 L127.335494,44.5834441 L127.335494,44.5834441 C127.898416,45.0362989 129.249427,45.3759399 129.474596,44.9230852 L129.474596,44.9230852 C129.868641,44.7532646 130.150102,44.243803 129.868641,43.6777345 C130.037517,43.4513071 129.136843,42.6022044 128.911674,42.4323839 L121.368527,37.2245539 L120.467853,36.6018786 L112.418077,31.0544076 C112.361784,30.9978007 112.080324,30.884587 112.024032,30.884587 C111.911447,30.884587 111.798863,30.884587 111.742571,30.9978007 C111.742571,31.1676213 111.742571,31.280835 111.742571,31.3940486 Z M117.034032,39.6586484 C117.034032,39.7152552 117.146617,39.8850757 117.202909,39.9416826 L124.183134,45.7721879 L124.971224,46.45147 L131.16336,51.6593 L131.16336,51.6593 C131.726282,52.1121548 132.908417,52.2253685 133.133585,51.7725137 L133.133585,51.7725137 C133.471338,51.4894795 133.640214,50.9800178 133.302462,50.4705562 C133.415046,50.3007357 132.514372,49.5648466 132.345495,49.451633 L125.64673,44.8664783 L124.85864,44.3004098 L117.709538,39.3756141 C117.653246,39.3190073 117.428077,39.2057936 117.371785,39.2624004 C117.315493,39.3190073 117.202909,39.3190073 117.146617,39.3756141 C117.034032,39.432221 117.034032,39.5454347 117.034032,39.6586484 Z M121.143359,48.6591371 C121.143359,48.7157439 121.199651,48.8289576 121.312235,48.9421713 L127.560663,54.2066081 L128.236169,54.7726766 L133.809091,59.4144381 L133.809091,59.4144381 C134.428304,59.9238997 135.328979,59.810686 135.610439,59.3012244 L135.610439,59.3012244 C135.8919,58.9615833 135.948192,58.4521217 135.497855,57.9992669 C135.554147,57.9426601 134.597181,57.206771 134.540889,57.1501642 L128.686506,53.131078 L128.011,52.6782233 L121.70628,48.3761029 C121.649988,48.319496 121.481112,48.2628892 121.368527,48.319496 C121.312235,48.319496 121.199651,48.3761029 121.143359,48.4327097 C121.143359,48.4327097 121.143359,48.5459234 121.143359,48.6591371 Z M135.216394,67.7922515 C136.398529,68.6979611 137.636957,66.9997556 136.511114,66.0940461 L130.544147,62.0183531 L124.577179,57.9426601 C124.408303,57.8294464 124.239427,57.8860532 124.126842,57.9992669 C124.014258,58.1690874 124.014258,58.3955148 124.183134,58.5087285 L129.756057,63.15049 L135.216394,67.7922515 L135.216394,67.7922515 Z"
          ></path>
        </g>
        <g transform="translate(0, 34.261)" id="Shape">
          <path
            d="M89.4406772,0.755882292 L113.083377,20.3984583 L136.726077,40.0410344 C137.007538,40.2674617 137.007538,40.6637097 136.838662,40.9467439 C136.613493,41.2297782 136.27574,41.2297782 135.99428,41.0599576 L110.719107,23.5684418 L85.4439351,6.07692594 C83.9240472,5.05800269 83.5300022,2.96354934 84.5995529,1.43516446 C85.6691036,-0.149827266 87.9770815,-0.48946835 89.4406772,0.755882292 L89.4406772,0.755882292 Z M136.669785,48.6452752 C136.669785,48.6452752 135.937987,48.0225998 135.937987,48.0225998 L116.066861,31.4934004 L113.871467,29.6253744 L96.2520265,14.964201 L96.2520265,14.964201 C96.1957344,14.964201 91.0168572,10.6620806 91.0168572,10.7186874 L91.0168572,10.7186874 C89.6095536,9.52994363 87.4704522,9.86958472 86.4009015,11.4545764 C85.4439351,12.9263545 85.8379801,14.9075941 87.2452836,15.9265174 L109.030343,30.9839388 L111.619782,32.7953579 L134.868437,48.9283094 C134.868437,48.9283094 135.937987,49.6641984 135.937987,49.6641984 C136.219448,49.834019 136.557201,49.7774121 136.78237,49.5509847 C136.951246,49.2679505 136.894954,48.8717025 136.669785,48.6452752 Z M135.712819,57.3627297 C135.712819,57.3627297 134.981021,56.7400543 134.981021,56.7400543 L115.841692,40.8335302 L113.702591,39.078718 L96.7023637,24.983613 L96.7023637,24.983613 C96.6460715,24.9270061 91.6923629,20.90792 91.6360708,20.9645268 L91.6360708,20.9645268 C90.2850594,19.8889967 88.2585422,20.2286378 87.3015758,21.7004158 C86.4009015,23.115587 86.7949465,25.0402198 88.1459579,25.9459294 L109.086635,40.4372823 L111.563489,42.1354877 L133.967762,57.6457639 C133.967762,57.6457639 134.981021,58.3250461 134.981021,58.3250461 C135.20619,58.4948666 135.600235,58.4382598 135.769111,58.2118324 C135.99428,57.9287981 135.937987,57.5325502 135.712819,57.3627297 Z M133.91147,66.0235773 C133.91147,66.0235773 133.235965,65.4575088 133.235965,65.4575088 L114.828434,50.1170532 L112.745624,48.4188478 L96.420903,34.8332044 L96.420903,34.8332044 C96.3083187,34.7765976 91.5797787,30.9839388 91.5797787,31.0405456 L91.5797787,31.0405456 C90.2850594,30.0216224 88.3711265,30.4178703 87.4704522,31.8330415 C86.6260701,33.134999 87.0201151,35.0030249 88.3148344,35.9087345 L108.411129,49.834019 L110.775399,51.4756175 L132.278998,66.3632184 C132.278998,66.3632184 133.235965,67.0425005 133.292257,67.0425005 C133.517425,67.2123211 133.855178,67.1557142 134.024055,66.9292869 C134.192931,66.5896458 134.136639,66.1933978 133.91147,66.0235773 Z M131.26574,74.4013907 C131.26574,74.4013907 130.646526,73.8353222 130.590234,73.8353222 L112.858209,59.1175419 L110.887984,57.4759433 L95.1824758,44.3997616 L95.1824758,44.3997616 C95.0698915,44.2865479 90.5665201,40.7203165 90.5102279,40.8335302 L90.5102279,40.8335302 C89.2718008,39.9278207 87.4704522,40.3240686 86.6823622,41.6260261 C85.8942722,42.8713767 86.3446093,44.6827958 87.5267444,45.5318986 L106.778657,58.8911145 L109.030343,60.4761063 L129.633267,74.7410318 C129.633267,74.7410318 130.533942,75.3637071 130.590234,75.3637071 C130.815402,75.5335277 131.153155,75.4769208 131.322032,75.2504934 C131.490908,74.9108523 131.490908,74.5712112 131.26574,74.4013907 Z M127.60675,82.3263493 C127.60675,82.3263493 126.987537,81.8168877 126.987537,81.7602809 L109.987309,67.608569 L108.073377,66.0235773 L92.9870822,53.4568572 L92.9870822,53.4568572 C92.8182058,53.3436435 88.5400029,50.0038395 88.4837108,50.1170532 L88.4837108,50.1170532 C87.3015758,49.2679505 85.6691036,49.6641984 84.8810136,50.9661559 C84.1492158,52.1548997 84.5995529,53.8531051 85.7816879,54.645601 L104.189219,67.3821416 L106.384612,68.9105265 L126.086862,82.5527767 C126.086862,82.5527767 126.987537,83.175452 126.987537,83.1188452 C127.212705,83.2320589 127.494166,83.2320589 127.663042,83.0056315 C127.888211,82.835811 127.831919,82.4961699 127.60675,82.3263493 Z M123.047087,89.515419 C123.047087,89.515419 122.484165,89.0059573 122.484165,89.0059573 L106.159444,75.4769208 L104.358095,73.9485359 L89.8910144,61.9478843 L89.8910144,61.9478843 C89.7221379,61.7780637 85.6691036,58.6646871 85.5565193,58.8345077 L85.5565193,58.8345077 C84.4306765,58.0420118 82.9107886,58.4948666 82.1789908,59.6836104 C81.503485,60.8157473 81.9538222,62.4573459 83.0796651,63.1932349 L100.642814,75.3637071 L102.725623,76.7788783 L121.527199,89.7984532 C121.527199,89.7984532 122.371581,90.3645217 122.371581,90.3645217 C122.596749,90.4777354 122.87821,90.4211285 123.047087,90.251308 C123.272255,90.0248806 123.272255,89.7418463 123.047087,89.515419 Z M117.474164,95.8553859 C117.474164,95.798779 116.967535,95.3459242 116.911243,95.3459242 L101.318319,82.3829562 L99.573263,80.9111782 L85.7816879,69.4199881 L85.7816879,69.4199881 C85.5565193,69.2501676 81.7286536,66.3632184 81.6160693,66.5330389 L81.6160693,66.5330389 C80.5465186,65.8537568 79.139215,66.3066115 78.5200015,67.4387485 C77.9007879,68.5142786 78.4074172,70.0426635 79.4206758,70.7219456 L96.1394422,82.3263493 L98.1096672,83.6849137 L116.010569,96.0818132 C116.066861,96.0818132 116.798659,96.5912749 116.854951,96.5912749 C117.080119,96.7044886 117.305288,96.6478817 117.474164,96.4780612 C117.643041,96.3648475 117.643041,96.0252064 117.474164,95.8553859 Z M110.831692,101.119823 C110.831692,101.063216 110.325062,100.666968 110.325062,100.610361 L95.4639365,88.2134615 L93.7751722,86.8548971 L80.6028108,75.8731687 L80.6028108,75.8731687 C80.3776422,75.7033482 76.7186529,73.0428264 76.6623607,73.2126469 L76.6623607,73.2126469 C75.6491022,72.5899716 74.410675,73.0428264 73.7914614,74.1183565 C73.22854,75.1372797 73.7351693,76.6090578 74.6921357,77.2317331 L90.6228122,88.2134615 L92.4804529,89.515419 L109.48068,101.289643 C109.536972,101.289643 110.212478,101.799105 110.26877,101.799105 C110.437647,101.912319 110.719107,101.855712 110.887984,101.685891 C111.000568,101.572677 111.000568,101.289643 110.831692,101.119823 Z M103.119668,105.025695 C103.119668,104.969088 102.669331,104.57284 102.613039,104.57284 L88.4837108,92.7986161 L86.9075308,91.4966586 L74.3543829,81.0243918 L74.3543829,81.0243918 C74.0729222,80.7979645 70.6953936,78.36387 70.5828093,78.5902974 L70.5828093,78.5902974 C69.6258429,78.0808358 68.5,78.5336906 67.9370786,79.5526138 C67.4304493,80.4583234 67.9933707,81.8734946 68.8377529,82.4961699 L83.9240472,92.9118298 L85.7253958,94.1571804 L101.824949,105.308729 C101.881241,105.308729 102.556747,105.761584 102.556747,105.761584 C102.725623,105.874798 102.950792,105.818191 103.119668,105.64837 C103.288544,105.421943 103.288544,105.138909 103.119668,105.025695 Z M94.2818015,107.403183 C94.2818015,107.346576 93.8314644,107.006935 93.8314644,106.950328 L80.3776422,95.7421722 L78.8577543,94.4968215 L66.92382,84.5906232 L66.92382,84.5906232 C66.5860671,84.3641958 63.4337071,82.1565288 63.3211228,82.3829562 L63.3211228,82.3829562 C62.4204485,81.9301014 61.40719,82.439563 60.9568528,83.4018794 C60.5065157,84.2509821 61.0694371,85.6095465 61.8575271,86.1190081 L76.0994393,95.9685996 L77.7882036,97.1573433 L92.9870822,107.686217 C93.0433744,107.686217 93.6625879,108.139072 93.7188801,108.082465 C93.8877565,108.195679 94.1129251,108.139072 94.2255094,107.969251 C94.450678,107.799431 94.450678,107.516396 94.2818015,107.403183 Z M84.3743843,108.082465 C84.3743843,108.025858 83.9803393,107.686217 83.9240472,107.62961 L71.258315,97.0441297 L69.8510114,95.8553859 L58.5925828,86.4586492 L58.5925828,86.4586492 C58.25483,86.175615 55.3276385,84.2509821 55.1587621,84.4774095 L55.1587621,84.4774095 C54.3143799,84.0811616 53.4699978,84.5906232 53.0196607,85.4963328 C52.6819078,86.2888287 53.1885371,87.5341793 53.9203349,88.0436409 L67.317865,97.3271639 L68.894045,98.402694 L83.2485415,108.308892 C83.3048336,108.365499 83.8677551,108.70514 83.9240472,108.70514 C84.0929236,108.761747 84.3180922,108.761747 84.4306765,108.591927 C84.5432608,108.478713 84.5432608,108.252285 84.3743843,108.082465 Z M74.4669672,107.289969 C74.4669672,107.233362 74.1292143,106.893721 74.0729222,106.893721 L62.0826957,96.8743091 L60.7316843,95.7421722 L50.0924692,86.8548971 L50.0924692,86.8548971 C49.6984242,86.5718629 46.9964014,84.8170506 46.8275249,85.1566917 L46.8275249,85.1566917 C46.0957271,84.8736575 45.1387606,85.3265122 44.9698842,86.2322218 C44.5195471,86.8548971 45.2513449,88.1568546 45.8705585,88.6097094 L58.4237064,97.270557 L59.8873021,98.2894803 L73.3411243,107.573003 C73.3974164,107.62961 73.9040457,107.969251 73.9603379,107.912644 C74.1292143,107.969251 74.2980907,107.912644 74.410675,107.799431 C74.5795515,107.62961 74.5795515,107.403183 74.4669672,107.289969 Z M64.7847186,105.138909 C64.7847186,105.082302 64.4469657,104.799268 64.3906736,104.742661 L53.1322449,95.3459242 L51.8938178,94.2703941 L41.8738163,85.9491876 L41.8738163,85.9491876 C41.4797713,85.6095465 39.002917,84.1377685 38.8340406,84.4774095 L38.8340406,84.4774095 C38.1585349,84.2509821 37.3141527,84.7038369 37.2015685,85.5529396 C36.8075235,86.1190081 37.5393213,87.3077519 38.1022427,87.7039998 L49.8110085,95.798779 L51.2183121,96.7610954 L63.77146,105.421943 C63.8277521,105.47855 64.3343814,105.761584 64.3906736,105.761584 C64.55955,105.818191 64.7284264,105.761584 64.8410107,105.64837 C64.8973028,105.47855 64.8973028,105.252123 64.7847186,105.138909 Z M55.5528071,101.685891 C55.5528071,101.629284 55.2713464,101.34625 55.2150542,101.289643 L44.6321313,92.458975 L43.4499963,91.4966586 L34.1055006,83.6849137 L34.1055006,83.6849137 C33.6551634,83.3452726 31.4034777,82.0433151 31.2346013,82.439563 L31.2346013,82.439563 C30.6153877,82.3263493 29.8835899,82.7792041 29.8272977,83.5717 C29.4895449,84.0811616 30.2213427,85.2132986 30.727972,85.5529396 L41.5923556,93.0816503 L42.8870749,93.9873599 L54.5395485,102.025532 C54.5958407,102.082139 55.0461778,102.308566 55.10247,102.308566 C55.2150542,102.365173 55.3839307,102.308566 55.496515,102.195353 C55.6090992,102.025532 55.6653914,101.855712 55.5528071,101.685891 Z M46.8275249,97.1573433 C46.8275249,97.1007365 46.5460642,96.8743091 46.5460642,96.8177023 L36.6949392,88.6097094 L35.5690963,87.7039998 L26.8438141,80.4017165 L26.8438141,80.4017165 C26.393477,80.0620754 24.3669598,78.9865453 24.1417913,79.3827933 L24.1417913,79.3827933 C23.5788698,79.3261864 22.9596563,79.7790412 23.0159484,80.5149302 C22.7344877,80.967785 23.5225777,81.9867083 23.9166227,82.3263493 L33.9366242,89.2889916 L35.1187592,90.0814874 L45.9268506,97.4403776 C45.9831428,97.4969844 46.3771878,97.7234118 46.4334799,97.666805 C46.5460642,97.7234118 46.7149406,97.666805 46.8275249,97.5535913 C46.8838171,97.4403776 46.9401092,97.270557 46.8275249,97.1573433 Z M38.7777485,91.4966586 C38.7777485,91.4400518 38.5525799,91.2136244 38.4962877,91.1570175 L29.3769606,83.5150931 L28.363702,82.6659904 L20.2576334,75.8731687 L20.2576334,75.8731687 C19.7510041,75.4769208 17.9496555,74.6844249 17.724487,75.0806729 L17.724487,75.0806729 C17.2178577,75.0806729 16.7112284,75.5901345 16.8238127,76.2694167 C16.5986441,76.6090578 17.3867341,77.627981 17.724487,77.8544084 L26.9563984,84.1943753 L28.0259491,84.9302643 L37.8770742,91.723086 C37.9333663,91.7796928 38.2711192,91.9495134 38.3837035,91.9495134 C38.4962877,92.0061202 38.608872,91.9495134 38.7214563,91.8362997 C38.8340406,91.7796928 38.8340406,91.6098723 38.7777485,91.4966586 Z M31.516062,84.8736575 C31.516062,84.8170506 31.3471856,84.5906232 31.2908934,84.5340164 L22.847072,77.5147673 L21.8901055,76.7222714 L14.4032505,70.4955182 L14.4032505,70.4955182 C13.8966212,70.0992703 12.2641491,69.476595 12.0389805,69.9294498 L12.0389805,69.9294498 C11.5886434,70.0426635 11.1945984,70.5521251 11.4197669,71.1181936 C11.1945984,71.4012278 12.0389805,72.3069374 12.3767334,72.5333647 L20.7642627,78.3072632 L21.7775213,78.9865453 L30.727972,85.2132986 C30.7842642,85.2699054 31.0657249,85.4397259 31.1783092,85.3831191 C31.2908934,85.3831191 31.4034777,85.3831191 31.4597699,85.2699054 C31.5723542,85.1566917 31.5723542,84.9868712 31.516062,84.8736575 Z M25.211342,77.4015536 C25.211342,77.3449468 25.0424656,77.1751262 24.9861734,77.1185194 L17.2741498,70.6653388 L16.4297677,69.9294498 L9.61841836,64.2121582 L9.61841836,64.2121582 C9.05549693,63.7593034 7.7044855,63.4196623 7.47931692,63.8725171 L7.47931692,63.8725171 C7.08527192,64.0423376 6.80381121,64.5517993 7.08527192,65.1178677 C6.91639549,65.3442951 7.81706978,66.1933978 8.04223836,66.3632184 L15.5853855,71.5710483 L16.4860598,72.1937237 L24.5358363,77.7411947 C24.5921284,77.7978015 24.8735891,77.9110152 24.9298813,77.9110152 C25.0424656,77.9110152 25.1550498,77.9110152 25.211342,77.7978015 C25.211342,77.627981 25.211342,77.5147673 25.211342,77.4015536 Z M19.9198805,69.0803471 C19.9198805,69.0237402 19.8072963,68.8539197 19.7510041,68.7973128 L12.7144862,62.9668075 L11.9263962,62.2875254 L5.73426049,57.0796954 L5.73426049,57.0796954 C5.17133906,56.6268406 3.98920405,56.5136269 3.76403548,56.9664817 L3.76403548,56.9664817 C3.42628262,57.249516 3.2574062,57.7589776 3.59515905,58.2684392 C3.48257477,58.4382598 4.38324906,59.1741488 4.55212549,59.2873625 L11.2508905,63.8725171 L12.0389805,64.4385856 L19.1880827,69.3633813 C19.2443748,69.4199881 19.4695434,69.5332018 19.5258355,69.476595 C19.5821277,69.4199881 19.694712,69.4199881 19.7510041,69.3633813 C19.9198805,69.3067744 19.9198805,69.1935607 19.9198805,69.0803471 Z M15.8105541,60.1364652 C15.8105541,60.0798583 15.754262,59.9666446 15.6416777,59.8534309 L9.33695765,54.5889941 L8.66145193,54.0229257 L3.08852977,49.3811642 L3.08852977,49.3811642 C2.46931619,48.8717025 1.56864116,48.9849162 1.28718119,49.4943779 L1.28718119,49.4943779 C1.00572047,49.834019 0.94942833,50.3434806 1.39976547,50.7963354 C1.34347333,50.8529422 2.30043976,51.5888312 2.35673191,51.6454381 L8.21111478,55.6645242 L8.8866205,56.117379 L15.1913405,60.4194994 C15.2476327,60.4761063 15.4165091,60.5327131 15.5290934,60.4761063 C15.5853855,60.4761063 15.6979698,60.4194994 15.754262,60.3628926 C15.8105541,60.3062857 15.8105541,60.193072 15.8105541,60.1364652 Z M1.73751833,41.0033508 C0.555383328,40.0976412 -0.683043819,41.7958466 0.442799042,42.7015562 L6.40976621,46.7772492 L12.3767334,50.8529422 C12.5456098,50.9661559 12.7144862,50.9095491 12.8270705,50.7963354 C12.9396548,50.6265148 12.9396548,50.4000874 12.7707784,50.2868737 L7.19785621,45.6451122 L1.73751833,41.0033508 L1.73751833,41.0033508 Z"
          ></path>
        </g>
      </g>
      <g id="text-logo-path-0" transform="translate(166.7081, 36.736)">
        <path
          d="M15.7534615,68.7773077 C11.0786538,68.7773077 7.28757692,67.2852115 4.38023077,64.3010192 C1.46007692,61.3296346 0,57.4425 0,52.6396154 L0,52.6396154 L0,16.23375 C0,11.3668269 1.44086538,7.44126923 4.32259615,4.45707692 C7.20432692,1.48569231 11.0146154,0 15.7534615,0 L15.7534615,0 C20.4923077,0 24.3346154,1.48569231 27.2803846,4.45707692 C30.2261538,7.44126923 31.6990385,11.3668269 31.6990385,16.23375 L31.6990385,16.23375 L31.6990385,52.6396154 C31.6990385,57.4425 30.2261538,61.3296346 27.2803846,64.3010192 C24.3346154,67.2852115 20.4923077,68.7773077 15.7534615,68.7773077 L15.7534615,68.7773077 Z M15.7534615,64.2625962 C18.9553846,64.2625962 21.5681538,63.2059615 23.5917692,61.0926923 C25.6025769,58.9794231 26.6079808,56.2257692 26.6079808,52.8317308 L26.6079808,52.8317308 L26.6079808,16.0416346 C26.6079808,12.6475962 25.6025769,9.87473077 23.5917692,7.72303846 C21.5681538,5.58415385 18.9553846,4.51471154 15.7534615,4.51471154 L15.7534615,4.51471154 C12.6155769,4.51471154 10.0540385,5.58415385 8.06884615,7.72303846 C6.08365385,9.87473077 5.09105769,12.6475962 5.09105769,16.0416346 L5.09105769,16.0416346 L5.09105769,52.8317308 C5.09105769,56.2257692 6.08365385,58.9794231 8.06884615,61.0926923 C10.0540385,63.2059615 12.6155769,64.2625962 15.7534615,64.2625962 L15.7534615,64.2625962 Z M91.7350962,0.768461538 C92.3754808,0.768461538 92.6956731,1.08865385 92.6956731,1.72903846 L92.6956731,1.72903846 L92.6956731,4.32259615 C92.6956731,4.96298077 92.3754808,5.28317308 91.7350962,5.28317308 L91.7350962,5.28317308 L78.9594231,5.28317308 C78.7032692,5.28317308 78.5751923,5.41125 78.5751923,5.66740385 L78.5751923,5.66740385 L78.5751923,67.0482692 C78.5751923,67.6886538 78.255,68.0088462 77.6146154,68.0088462 L77.6146154,68.0088462 L74.4447115,68.0088462 C73.8043269,68.0088462 73.4841346,67.6886538 73.4841346,67.0482692 L73.4841346,67.0482692 L73.4841346,5.66740385 C73.4841346,5.41125 73.3560577,5.28317308 73.0999038,5.28317308 L73.0999038,5.28317308 L61.0926923,5.28317308 C60.4523077,5.28317308 60.1321154,4.96298077 60.1321154,4.32259615 L60.1321154,4.32259615 L60.1321154,1.72903846 C60.1321154,1.08865385 60.4523077,0.768461538 61.0926923,0.768461538 L61.0926923,0.768461538 L91.7350962,0.768461538 Z M147.832788,1.72903846 C147.832788,1.08865385 148.152981,0.768461538 148.793365,0.768461538 L148.793365,0.768461538 L151.963269,0.768461538 C152.603654,0.768461538 152.923846,1.08865385 152.923846,1.72903846 L152.923846,1.72903846 L152.923846,67.0482692 C152.923846,67.6886538 152.603654,68.0088462 151.963269,68.0088462 L151.963269,68.0088462 L148.793365,68.0088462 C148.152981,68.0088462 147.832788,67.6886538 147.832788,67.0482692 L147.832788,67.0482692 L147.832788,36.9822115 C147.832788,36.7260577 147.704712,36.5979808 147.448558,36.5979808 L147.448558,36.5979808 L128.429135,36.5979808 C128.172981,36.5979808 128.044904,36.7260577 128.044904,36.9822115 L128.044904,36.9822115 L128.044904,67.0482692 C128.044904,67.6886538 127.724712,68.0088462 127.084327,68.0088462 L127.084327,68.0088462 L123.914423,68.0088462 C123.274038,68.0088462 122.953846,67.6886538 122.953846,67.0482692 L122.953846,67.0482692 L122.953846,1.72903846 C122.953846,1.08865385 123.274038,0.768461538 123.914423,0.768461538 L123.914423,0.768461538 L127.084327,0.768461538 C127.724712,0.768461538 128.044904,1.08865385 128.044904,1.72903846 L128.044904,1.72903846 L128.044904,31.6990385 C128.044904,31.9551923 128.172981,32.0832692 128.429135,32.0832692 L128.429135,32.0832692 L147.448558,32.0832692 C147.704712,32.0832692 147.832788,31.9551923 147.832788,31.6990385 L147.832788,31.6990385 L147.832788,1.72903846 Z M215.745577,4.32259615 C215.745577,4.96298077 215.425385,5.28317308 214.785,5.28317308 L214.785,5.28317308 L192.019327,5.28317308 C191.763173,5.28317308 191.635096,5.41125 191.635096,5.66740385 L191.635096,5.66740385 L191.635096,31.6990385 C191.635096,31.9551923 191.763173,32.0832692 192.019327,32.0832692 L192.019327,32.0832692 L206.620096,32.0832692 C207.260481,32.0832692 207.580673,32.4034615 207.580673,33.0438462 L207.580673,33.0438462 L207.580673,35.6374038 C207.580673,36.2777885 207.260481,36.5979808 206.620096,36.5979808 L206.620096,36.5979808 L192.019327,36.5979808 C191.763173,36.5979808 191.635096,36.7260577 191.635096,36.9822115 L191.635096,36.9822115 L191.635096,63.1099038 C191.635096,63.3660577 191.763173,63.4941346 192.019327,63.4941346 L192.019327,63.4941346 L214.785,63.4941346 C215.425385,63.4941346 215.745577,63.8143269 215.745577,64.4547115 L215.745577,64.4547115 L215.745577,67.0482692 C215.745577,67.6886538 215.425385,68.0088462 214.785,68.0088462 L214.785,68.0088462 L187.504615,68.0088462 C186.864231,68.0088462 186.544038,67.6886538 186.544038,67.0482692 L186.544038,67.0482692 L186.544038,1.72903846 C186.544038,1.08865385 186.864231,0.768461538 187.504615,0.768461538 L187.504615,0.768461538 L214.785,0.768461538 C215.425385,0.768461538 215.745577,1.08865385 215.745577,1.72903846 L215.745577,1.72903846 L215.745577,4.32259615 Z M273.860481,68.0088462 C273.284135,68.0088462 272.899904,67.7526923 272.707788,67.2403846 L272.707788,67.2403846 L262.141442,36.7900962 C262.077404,36.5979808 261.949327,36.5019231 261.757212,36.5019231 L261.757212,36.5019231 L252.2475,36.5019231 C251.991346,36.5019231 251.863269,36.63 251.863269,36.8861538 L251.863269,36.8861538 L251.863269,67.0482692 C251.863269,67.6886538 251.543077,68.0088462 250.902692,68.0088462 L250.902692,68.0088462 L247.732788,68.0088462 C247.092404,68.0088462 246.772212,67.6886538 246.772212,67.0482692 L246.772212,67.0482692 L246.772212,1.72903846 C246.772212,1.08865385 247.092404,0.768461538 247.732788,0.768461538 L247.732788,0.768461538 L262.621731,0.768461538 C267.104423,0.768461538 270.722596,2.43346154 273.47625,5.76346154 C276.229904,9.09346154 277.606731,13.4480769 277.606731,18.8273077 L277.606731,18.8273077 C277.606731,23.1178846 276.678173,26.7680769 274.821058,29.7778846 C272.963942,32.7876923 270.434423,34.8369231 267.2325,35.9255769 L267.2325,35.9255769 C266.976346,35.9896154 266.880288,36.1497115 266.944327,36.4058654 L266.944327,36.4058654 L277.798846,66.9522115 L277.894904,67.3364423 C277.894904,67.7847115 277.606731,68.0088462 277.030385,68.0088462 L277.030385,68.0088462 L273.860481,68.0088462 Z M252.2475,5.28317308 C251.991346,5.28317308 251.863269,5.41125 251.863269,5.66740385 L251.863269,5.66740385 L251.863269,31.8911538 C251.863269,32.1473077 251.991346,32.2753846 252.2475,32.2753846 L252.2475,32.2753846 L262.045385,32.2753846 C265.183269,32.2753846 267.712788,31.0394423 269.633942,28.5675577 C271.555096,26.1084808 272.515673,22.8617308 272.515673,18.8273077 L272.515673,18.8273077 C272.515673,14.7288462 271.555096,11.4436731 269.633942,8.97178846 C267.712788,6.51271154 265.183269,5.28317308 262.045385,5.28317308 L262.045385,5.28317308 L252.2475,5.28317308 Z M320.640577,68.7773077 C316.093846,68.7773077 312.411635,67.2275769 309.593942,64.1281154 C306.77625,61.0158462 305.367404,56.9622115 305.367404,51.9672115 L305.367404,51.9672115 L305.367404,49.95 C305.367404,49.3096154 305.687596,48.9894231 306.327981,48.9894231 L306.327981,48.9894231 L309.401827,48.9894231 C310.042212,48.9894231 310.362404,49.3096154 310.362404,49.95 L310.362404,49.95 L310.362404,51.7750962 C310.362404,55.5533654 311.303769,58.5951923 313.1865,60.9005769 C315.082038,63.2059615 317.534712,64.3586538 320.544519,64.3586538 L320.544519,64.3586538 C323.554327,64.3586538 326.051827,63.2379808 328.037019,60.9966346 C330.022212,58.7552885 331.014808,55.8415385 331.014808,52.2553846 L331.014808,52.2553846 C331.014808,49.8859615 330.553731,47.8367308 329.631577,46.1076923 C328.696615,44.3786538 327.511904,42.8865577 326.077442,41.6314038 C324.630173,40.3890577 322.273558,38.5191346 319.007596,36.0216346 L319.007596,36.0216346 C315.677596,33.5241346 313.135269,31.4556923 311.380615,29.8163077 C309.613154,28.1897308 308.153077,26.2365577 307.000385,23.9567885 C305.847692,21.6898269 305.271346,18.9874038 305.271346,15.8495192 L305.271346,15.8495192 C305.271346,10.9185577 306.648173,7.04423077 309.401827,4.22653846 C312.155481,1.40884615 315.709615,0 320.064231,0 L320.064231,0 C324.739038,0 328.485288,1.56894231 331.302981,4.70682692 C334.120673,7.84471154 335.529519,11.9751923 335.529519,17.0982692 L335.529519,17.0982692 L335.529519,19.4997115 C335.529519,20.1400962 335.209327,20.4602885 334.568942,20.4602885 L334.568942,20.4602885 L331.399038,20.4602885 C330.758654,20.4602885 330.438462,20.1400962 330.438462,19.4997115 L330.438462,19.4997115 L330.438462,17.0982692 C330.438462,13.32 329.490692,10.2589615 327.595154,7.91515385 C325.712423,5.58415385 323.202115,4.41865385 320.064231,4.41865385 L320.064231,4.41865385 C317.246538,4.41865385 314.909135,5.42405769 313.052019,7.43486538 C311.194904,9.45848077 310.266346,12.2953846 310.266346,15.9455769 L310.266346,15.9455769 C310.266346,18.1228846 310.669788,20.0120192 311.476673,21.6129808 C312.27075,23.2139423 313.417038,24.7188462 314.915538,26.1276923 C316.426846,27.5365385 318.719423,29.3936538 321.793269,31.6990385 L321.793269,31.6990385 C325.571538,34.5167308 328.389231,36.7900962 330.246346,38.5191346 C332.103462,40.2481731 333.531519,42.1373077 334.530519,44.1865385 C335.516712,46.2357692 336.009808,48.70125 336.009808,51.5829808 L336.009808,51.5829808 C336.009808,56.8341346 334.58175,61.0158462 331.725635,64.1281154 C328.882327,67.2275769 325.187308,68.7773077 320.640577,68.7773077 L320.640577,68.7773077 Z M368.093077,68.0088462 C367.452692,68.0088462 367.1325,67.6886538 367.1325,67.0482692 L367.1325,67.0482692 L367.1325,1.72903846 C367.1325,1.08865385 367.452692,0.768461538 368.093077,0.768461538 L368.093077,0.768461538 L371.262981,0.768461538 C371.903365,0.768461538 372.223558,1.08865385 372.223558,1.72903846 L372.223558,1.72903846 L372.223558,67.0482692 C372.223558,67.6886538 371.903365,68.0088462 371.262981,68.0088462 L371.262981,68.0088462 L368.093077,68.0088462 Z M434.084712,0.768461538 C434.725096,0.768461538 435.045288,1.08865385 435.045288,1.72903846 L435.045288,1.72903846 L435.045288,4.32259615 C435.045288,4.96298077 434.725096,5.28317308 434.084712,5.28317308 L434.084712,5.28317308 L421.309038,5.28317308 C421.052885,5.28317308 420.924808,5.41125 420.924808,5.66740385 L420.924808,5.66740385 L420.924808,67.0482692 C420.924808,67.6886538 420.604615,68.0088462 419.964231,68.0088462 L419.964231,68.0088462 L416.794327,68.0088462 C416.153942,68.0088462 415.83375,67.6886538 415.83375,67.0482692 L415.83375,67.0482692 L415.83375,5.66740385 C415.83375,5.41125 415.705673,5.28317308 415.449519,5.28317308 L415.449519,5.28317308 L403.442308,5.28317308 C402.801923,5.28317308 402.481731,4.96298077 402.481731,4.32259615 L402.481731,4.32259615 L402.481731,1.72903846 C402.481731,1.08865385 402.801923,0.768461538 403.442308,0.768461538 L403.442308,0.768461538 L434.084712,0.768461538 Z M494.505,4.32259615 C494.505,4.96298077 494.184808,5.28317308 493.544423,5.28317308 L493.544423,5.28317308 L470.77875,5.28317308 C470.522596,5.28317308 470.394519,5.41125 470.394519,5.66740385 L470.394519,5.66740385 L470.394519,31.6990385 C470.394519,31.9551923 470.522596,32.0832692 470.77875,32.0832692 L470.77875,32.0832692 L485.379519,32.0832692 C486.019904,32.0832692 486.340096,32.4034615 486.340096,33.0438462 L486.340096,33.0438462 L486.340096,35.6374038 C486.340096,36.2777885 486.019904,36.5979808 485.379519,36.5979808 L485.379519,36.5979808 L470.77875,36.5979808 C470.522596,36.5979808 470.394519,36.7260577 470.394519,36.9822115 L470.394519,36.9822115 L470.394519,63.1099038 C470.394519,63.3660577 470.522596,63.4941346 470.77875,63.4941346 L470.77875,63.4941346 L493.544423,63.4941346 C494.184808,63.4941346 494.505,63.8143269 494.505,64.4547115 L494.505,64.4547115 L494.505,67.0482692 C494.505,67.6886538 494.184808,68.0088462 493.544423,68.0088462 L493.544423,68.0088462 L466.264038,68.0088462 C465.623654,68.0088462 465.303462,67.6886538 465.303462,67.0482692 L465.303462,67.0482692 L465.303462,1.72903846 C465.303462,1.08865385 465.623654,0.768461538 466.264038,0.768461538 L466.264038,0.768461538 L493.544423,0.768461538 C494.184808,0.768461538 494.505,1.08865385 494.505,1.72903846 L494.505,1.72903846 L494.505,4.32259615 Z"
          id="Shape"
        ></path>
      </g>
    </g>
  </g>
</svg>
